<svg width="17" height="19" viewBox="0 0 17 19" fill="none" xmlns="http://www.w3.org/2000/svg">
<path d="M11.1075 14.8044C11.4877 14.8044 11.796 14.4961 11.796 14.1159V7.23053C11.796 6.85032 11.4877 6.54199 11.1075 6.54199C10.7273 6.54199 10.4189 6.85032 10.4189 7.23053V14.1159C10.4189 14.4961 10.7273 14.8044 11.1075 14.8044Z" fill="black"/>
<path d="M6.28778 14.8044C6.66799 14.8044 6.97631 14.4961 6.97631 14.1159V7.23053C6.97631 6.85032 6.66799 6.54199 6.28778 6.54199C5.90757 6.54199 5.59924 6.85032 5.59924 7.23053V14.1159C5.59924 14.4961 5.90757 14.8044 6.28778 14.8044Z" fill="black"/>
<path d="M11.4518 1.37707C11.832 1.37707 12.1403 1.06874 12.1403 0.688534C12.1403 0.308325 11.832 0 11.4518 0H5.94354C5.56333 0 5.255 0.308325 5.255 0.688534C5.255 1.06874 5.56333 1.37707 5.94354 1.37707H11.4518Z" fill="black"/>
<path d="M1.12371 2.06543C0.743506 2.06543 0.435181 2.37376 0.435181 2.75396C0.435181 3.13417 0.743506 3.4425 1.12371 3.4425H1.81225V16.1115C1.81225 17.6675 3.07915 18.9345 4.63524 18.9345H12.7599C14.316 18.9345 15.5829 17.6676 15.5829 16.1115V3.4425H16.2715C16.6517 3.4425 16.96 3.13417 16.96 2.75396C16.96 2.37376 16.6517 2.06543 16.2715 2.06543H14.8944H2.50078H1.12371ZM14.2059 3.4425V16.1115C14.2059 16.9102 13.5586 17.5574 12.7599 17.5574H4.63524C3.83654 17.5574 3.18932 16.9102 3.18932 16.1115V3.4425H14.2059Z" fill="black"/>
</svg>
