<svg width="20" height="20" viewBox="0 0 20 20" fill="none" xmlns="http://www.w3.org/2000/svg">
<path d="M18.7244 9.65439L15.5622 6.54328C15.4498 6.44024 15.3012 6.38414 15.1476 6.38681C14.994 6.38948 14.8474 6.4507 14.7388 6.55757C14.6301 6.66445 14.5679 6.80864 14.5652 6.95976C14.5625 7.11088 14.6195 7.25714 14.7242 7.36772L16.8745 9.48328H5.65675C5.4995 9.48328 5.34869 9.54474 5.2375 9.65413C5.12631 9.76353 5.06384 9.9119 5.06384 10.0666C5.06384 10.2213 5.12631 10.3697 5.2375 10.4791C5.34869 10.5885 5.4995 10.6499 5.65675 10.6499H16.8745L14.7242 12.7655C14.6132 12.8749 14.5509 13.0231 14.5509 13.1777C14.5509 13.3323 14.6132 13.4806 14.7242 13.5899C14.8354 13.6992 14.9861 13.7605 15.1432 13.7605C15.3004 13.7605 15.4511 13.6992 15.5622 13.5899L18.7244 10.4788C18.8354 10.3695 18.8978 10.2212 18.8978 10.0666C18.8978 9.91203 18.8354 9.76377 18.7244 9.65439Z" fill="#FF594A"/>
<path d="M11.981 13.3723C11.8244 13.3743 11.6748 13.4364 11.564 13.5454C11.4533 13.6543 11.3901 13.8015 11.3881 13.9556V15.5112C11.3881 15.769 11.284 16.0163 11.0987 16.1986C10.9133 16.381 10.662 16.4834 10.3999 16.4834H4.0756C3.81352 16.4834 3.56217 16.381 3.37685 16.1986C3.19153 16.0163 3.08742 15.769 3.08742 15.5112V4.62229C3.08742 4.36444 3.19153 4.11715 3.37685 3.93482C3.56217 3.7525 3.81352 3.65007 4.0756 3.65007H10.3999C10.662 3.65007 10.9133 3.7525 11.0987 3.93482C11.284 4.11715 11.3881 4.36444 11.3881 4.62229V6.17784C11.3881 6.33255 11.4506 6.48093 11.5618 6.59032C11.6729 6.69972 11.8238 6.76118 11.981 6.76118C12.1383 6.76118 12.2891 6.69972 12.4003 6.59032C12.5114 6.48093 12.5739 6.33255 12.5739 6.17784V4.62229C12.5739 4.05502 12.3449 3.51098 11.9372 3.10986C11.5295 2.70875 10.9765 2.4834 10.3999 2.4834H4.0756C3.49902 2.4834 2.94606 2.70875 2.53836 3.10986C2.13066 3.51098 1.90161 4.05502 1.90161 4.62229V15.5112C1.90161 16.0784 2.13066 16.6225 2.53836 17.0236C2.94606 17.4247 3.49902 17.6501 4.0756 17.6501H10.3999C10.9765 17.6501 11.5295 17.4247 11.9372 17.0236C12.3449 16.6225 12.5739 16.0784 12.5739 15.5112V13.9556C12.5719 13.8015 12.5087 13.6543 12.398 13.5454C12.2872 13.4364 12.1376 13.3743 11.981 13.3723Z" fill="#FF594A"/>
</svg>
