<svg width="20" height="19" viewBox="0 0 20 19" fill="none" xmlns="http://www.w3.org/2000/svg">
<g clip-path="url(#clip0_98_136)">
<path opacity="0.963" fill-rule="evenodd" clip-rule="evenodd" d="M8.17564 0.536496C11.0908 0.530319 14.0059 0.536496 16.921 0.555025C17.2319 0.717655 17.3122 0.958523 17.1619 1.27763C17.0892 1.37528 16.9966 1.44322 16.8839 1.48144C15.5623 1.49997 14.2406 1.50614 12.9189 1.49997C12.9251 5.44034 12.9189 9.38068 12.9004 13.321C12.7361 13.66 12.4829 13.7527 12.1407 13.5989C12.0307 13.5211 11.9628 13.4161 11.9369 13.284C11.9184 9.356 11.9122 5.428 11.9184 1.49997C10.9796 1.49997 10.0408 1.49997 9.10205 1.49997C9.10824 5.46506 9.10205 9.43011 9.08352 13.3951C8.83784 13.7324 8.55376 13.7694 8.23122 13.5063C8.20651 13.4569 8.18183 13.4075 8.15711 13.3581C8.14477 11.8758 8.13239 10.3935 8.12005 8.91129C6.57353 8.66101 5.46184 7.83342 4.78496 6.42849C4.07581 4.51586 4.4649 2.86685 5.95224 1.48144C6.61055 0.967731 7.35168 0.65275 8.17564 0.536496ZM8.06447 1.57408C8.11386 2.61755 8.13858 3.67366 8.13858 4.74242C8.12624 5.79853 8.11386 6.85464 8.10152 7.91076C6.43961 7.51396 5.55025 6.46403 5.43345 4.76095C5.49085 3.3146 6.18255 2.3079 7.50862 1.74084C7.69676 1.67858 7.88204 1.623 8.06447 1.57408Z" fill="black"/>
<path opacity="0.971" fill-rule="evenodd" clip-rule="evenodd" d="M5.35943 12.9504C5.82793 12.9309 6.03175 13.1533 5.97086 13.6174C5.47371 14.1517 4.96111 14.6766 4.43301 15.1923C8.43512 15.2047 12.4372 15.217 16.4393 15.2294C16.7046 15.382 16.7972 15.6105 16.7173 15.9149C16.6617 16.0446 16.569 16.1373 16.4393 16.1928C12.4372 16.2052 8.43512 16.2176 4.43301 16.2299C4.90963 16.7189 5.39756 17.1945 5.89675 17.6566C6.0794 18.0053 5.9991 18.2709 5.65588 18.4533C5.49883 18.4838 5.35061 18.4591 5.2112 18.3792C4.37743 17.5454 3.54365 16.7116 2.70988 15.8779C2.63577 15.7667 2.63577 15.6555 2.70988 15.5444C3.57788 14.6577 4.46106 13.7931 5.35943 12.9504Z" fill="black"/>
</g>
<defs>
<clipPath id="clip0_98_136">
<rect width="18.973" height="18.973" fill="white" transform="translate(0.48645 -0.000488281)"/>
</clipPath>
</defs>
</svg>
