<svg width="35" height="35" viewBox="0 0 35 35" fill="none" xmlns="http://www.w3.org/2000/svg">
<rect width="35" height="35" rx="5" fill="#6FD943"/>
<path d="M20.0691 11.8888C20.9939 12.4686 21.6423 13.4498 21.7604 14.5887C22.1375 14.7649 22.5561 14.8662 22.9999 14.8662C24.62 14.8662 25.9331 13.5531 25.9331 11.9332C25.9331 10.3131 24.62 9 22.9999 9C21.3952 9.0005 20.0936 10.2902 20.0691 11.8888ZM18.1475 17.8945C19.7676 17.8945 21.0807 16.5812 21.0807 14.9613C21.0807 13.3414 19.7674 12.0283 18.1475 12.0283C16.5276 12.0283 15.2138 13.3417 15.2138 14.9616C15.2138 16.5814 16.5276 17.8945 18.1475 17.8945ZM19.3917 18.0945H16.9028C14.8319 18.0945 13.1471 19.7795 13.1471 21.8504V24.8942L13.1549 24.9418L13.3645 25.0075C15.3408 25.625 17.0578 25.8309 18.471 25.8309C21.2312 25.8309 22.8312 25.0439 22.9297 24.9938L23.1257 24.8947H23.1466V21.8504C23.1474 19.7795 21.4626 18.0945 19.3917 18.0945ZM24.2446 15.0664H21.7749C21.7482 16.0545 21.3263 16.9443 20.6592 17.5843C22.4999 18.1317 23.8468 19.8386 23.8468 21.8549V22.7928C26.2853 22.7035 27.6905 22.0124 27.7831 21.9659L27.979 21.8666H28V18.8218C28 16.7512 26.3152 15.0664 24.2446 15.0664ZM13.0006 14.8667C13.5744 14.8667 14.1083 14.6992 14.5606 14.414C14.7044 13.4762 15.207 12.6568 15.9251 12.0987C15.9281 12.0438 15.9334 11.9894 15.9334 11.934C15.9334 10.3139 14.62 9.00075 13.0006 9.00075C11.3803 9.00075 10.0674 10.3139 10.0674 11.934C10.0674 13.5534 11.3803 14.8667 13.0006 14.8667ZM15.6348 17.5843C14.9709 16.9476 14.5506 16.0625 14.5199 15.0804C14.4283 15.0736 14.3377 15.0664 14.2444 15.0664H11.7556C9.68476 15.0664 8 16.7512 8 18.8218V21.8661L8.00774 21.913L8.2174 21.9792C9.80282 22.4741 11.2178 22.7022 12.4468 22.7741V21.8549C12.4473 19.8386 13.7936 18.1322 15.6348 17.5843Z" fill="white"/>
</svg>
